<svg viewBox="0 0 32 32" fill="none" xmlns="http://www.w3.org/2000/svg">
  <rect width="32" height="32" rx="4" fill="#2A1E18"/>
  <path d="M10 20H22C22 20 23 20 23 21V24C23 27 21 28 19 28H13C11 28 10 27 10 24V21C10 20 10 20 10 20Z" fill="#F3EBDD" stroke="#F3EBDD" stroke-width="1"/>
  <path d="M22 22C23 22 25 23 25 25C25 27 23 28 22 28" stroke="#F3EBDD" stroke-width="1.5" stroke-linecap="round"/>
  <circle cx="15" cy="24" r="1" fill="#D65A31"/>
  <circle cx="18" cy="25.5" r="1" fill="#E9A23B"/>
  <circle cx="21" cy="24" r="1" fill="#D65A31"/>
  <path d="M14 18C14 18 16 14 16 18C16 22 18 18 18 18" stroke="#F3EBDD" stroke-width="1" stroke-linecap="round" opacity="0.7"/>
</svg>